<svg width="220" height="220" viewBox="0 0 220 220" fill="none" xmlns="http://www.w3.org/2000/svg">
<path d="M108.83 4.17059C112.914 5.72968 115.541 7.81145 118.661 10.6083C119.668 11.5057 120.675 12.4032 121.713 13.3278C122.789 14.2978 123.866 15.2677 124.975 16.267C126.096 17.2697 127.218 18.2719 128.34 19.2736C131.284 21.9053 134.222 24.5432 137.158 27.1825C140.158 29.877 143.165 32.5656 146.171 35.2547C152.064 40.5274 157.949 45.8066 163.83 51.09C162.734 52.2405 161.636 53.3895 160.538 54.538C159.927 55.178 159.316 55.818 158.686 56.4774C155.907 59.3056 152.942 61.9464 149.934 64.5794C149.351 65.0935 148.769 65.6076 148.169 66.1372C146.761 67.3799 145.349 68.6192 143.936 69.8578C137.246 64.9038 131.091 59.5917 124.961 54.0958C123.96 53.2021 122.959 52.3084 121.927 51.3876C118.753 48.5539 115.583 45.7166 112.414 42.8791C110.252 40.9483 108.091 39.0178 105.929 37.0875C100.652 32.3739 95.3779 27.6573 90.1064 22.9384C91.7951 19.7957 93.4601 17.6159 96.2591 15.1673C96.9908 14.5222 97.7224 13.8771 98.4761 13.2124C99.2379 12.5511 99.9997 11.8898 100.785 11.2085C101.555 10.5311 102.326 9.85371 103.12 9.15578C105.018 7.48924 106.922 5.82777 108.83 4.17059Z" fill="#FF6481"/>
<path d="M2.34042 28.1517C6.98426 30.2205 9.95903 32.5673 13.5372 35.7919C14.1816 36.3642 14.8259 36.9365 15.4898 37.5262C17.6478 39.4456 19.7974 41.3724 21.9472 43.2992C23.4923 44.6764 25.0379 46.0532 26.5839 47.4296C30.7813 51.1687 34.9713 54.9143 39.1601 58.6611C43.5383 62.5751 47.9231 66.4831 52.3072 70.3919C60.6089 77.7951 68.9046 85.2036 77.1982 92.6141C86.6401 101.05 96.0886 109.48 105.538 117.91C124.976 135.251 144.406 152.599 163.83 169.953C162.734 171.103 161.636 172.252 160.538 173.401C159.927 174.041 159.316 174.681 158.686 175.34C155.907 178.168 152.942 180.809 149.934 183.442C149.351 183.956 148.769 184.47 148.169 185C146.761 186.242 145.349 187.482 143.936 188.72C137.4 183.871 131.36 178.701 125.362 173.332C124.356 172.436 123.35 171.54 122.314 170.617C119.581 168.181 116.85 165.742 114.12 163.302C111.258 160.746 108.392 158.192 105.527 155.638C100.112 150.81 94.7004 145.98 89.2898 141.148C82.5198 135.104 75.7457 129.062 68.9717 123.021C56.8993 112.254 44.8329 101.482 32.766 90.7109C32.3798 125.118 31.9936 159.526 31.5957 194.976C21.9415 194.976 12.2872 194.976 2.34042 194.976C2.34042 139.924 2.34042 84.8721 2.34042 28.1517Z" fill="#FF6481"/>
<path d="M188.404 27.109C198.059 27.109 207.713 27.109 217.66 27.109C217.66 82.1611 217.66 137.213 217.66 193.934C213.016 191.865 210.041 189.518 206.463 186.293C205.818 185.721 205.174 185.149 204.51 184.559C202.352 182.64 200.203 180.713 198.053 178.786C196.508 177.409 194.962 176.032 193.416 174.656C189.219 170.917 185.029 167.171 180.84 163.424C176.462 159.51 172.077 155.602 167.693 151.693C159.391 144.29 151.095 136.882 142.802 129.471C133.36 121.035 123.911 112.605 114.462 104.176C95.0242 86.8345 75.5944 69.4861 56.1702 52.1327C57.266 50.9823 58.3636 49.8332 59.462 48.6848C60.073 48.0447 60.6841 47.4047 61.3136 46.7453C64.0925 43.9171 67.0583 41.2764 70.0665 38.6434C70.9399 37.8722 70.9399 37.8722 71.8309 37.0855C73.2392 35.8428 74.6511 34.6035 76.0638 33.3649C82.6002 38.2142 88.6395 43.3847 94.6384 48.7538C95.644 49.6496 96.6496 50.5454 97.6857 51.4684C100.419 53.9047 103.15 56.3433 105.88 58.7829C108.742 61.3396 111.608 63.8934 114.473 66.4475C119.888 71.2752 125.3 76.1055 130.71 80.9368C137.48 86.9817 144.254 93.023 151.028 99.0644C163.101 109.831 175.167 120.603 187.234 131.374C187.62 96.9668 188.006 62.5592 188.404 27.109Z" fill="#FF6481"/>
<path d="M76.0638 152.227C82.7539 157.182 88.9091 162.494 95.0386 167.989C96.04 168.883 97.0414 169.777 98.0732 170.698C101.247 173.531 104.417 176.369 107.586 179.206C109.748 181.137 111.909 183.067 114.071 184.998C119.348 189.711 124.622 194.428 129.894 199.147C128.205 202.29 126.54 204.469 123.741 206.918C123.009 207.563 122.278 208.208 121.524 208.873C120.762 209.534 120 210.195 119.215 210.877C118.445 211.554 117.674 212.232 116.88 212.929C114.982 214.596 113.078 216.258 111.17 217.915C107.086 216.356 104.459 214.274 101.339 211.477C100.332 210.58 99.3247 209.682 98.2871 208.757C97.2106 207.788 96.1341 206.818 95.0249 205.818C93.904 204.816 92.7825 203.813 91.6605 202.812C88.7158 200.18 85.7781 197.542 82.8419 194.903C79.8417 192.208 76.8348 189.52 73.8285 186.831C67.9359 181.558 62.0507 176.279 56.1702 170.995C57.266 169.845 58.3636 168.696 59.462 167.547C60.073 166.907 60.6841 166.267 61.3136 165.608C64.0925 162.78 67.0583 160.139 70.0665 157.506C70.6488 156.992 71.231 156.478 71.8309 155.948C73.2392 154.705 74.6511 153.466 76.0638 152.227Z" fill="#FF6481"/>
</svg>
